<mxfile host="65bd71144e">
    <diagram id="vVA_o35hJ7-RhdYQv6_G" name="逻辑架构">
        <mxGraphModel dx="2740" dy="689" grid="1" gridSize="10" guides="1" tooltips="1" connect="1" arrows="1" fold="1" page="1" pageScale="1" pageWidth="827" pageHeight="1169" math="0" shadow="0">
            <root>
                <mxCell id="0"/>
                <mxCell id="1" parent="0"/>
                <mxCell id="oEgxVoZ06rKnOK16Z4o3-8" value="" style="rounded=0;whiteSpace=wrap;html=1;fillColor=#dae8fc;strokeColor=#6c8ebf;fontSize=15;" parent="1" vertex="1">
                    <mxGeometry x="-1320" y="460" width="830" height="370" as="geometry"/>
                </mxCell>
                <mxCell id="oEgxVoZ06rKnOK16Z4o3-9" value="业务服务层" style="text;html=1;strokeColor=none;fillColor=none;align=center;verticalAlign=middle;whiteSpace=wrap;rounded=0;fontSize=15;" parent="1" vertex="1">
                    <mxGeometry x="-1300" y="470" width="100" height="20" as="geometry"/>
                </mxCell>
                <mxCell id="1Gb1egaOadGZ2a_2MbuA-2" value="工作空间服务" style="html=1;fontSize=15;" parent="1" vertex="1">
                    <mxGeometry x="-1070" y="520" width="110" height="50" as="geometry"/>
                </mxCell>
                <mxCell id="1Gb1egaOadGZ2a_2MbuA-5" value="数据空间服务" style="html=1;fontSize=15;" parent="1" vertex="1">
                    <mxGeometry x="-830" y="520" width="110" height="50" as="geometry"/>
                </mxCell>
                <mxCell id="1Gb1egaOadGZ2a_2MbuA-13" value="工作空间执行器" style="html=1;fontSize=15;" parent="1" vertex="1">
                    <mxGeometry x="-1070" y="750" width="110" height="50" as="geometry"/>
                </mxCell>
                <mxCell id="1Gb1egaOadGZ2a_2MbuA-20" value="数据空间执行器" style="html=1;fontSize=15;" parent="1" vertex="1">
                    <mxGeometry x="-830" y="750" width="110" height="50" as="geometry"/>
                </mxCell>
                <mxCell id="oEgxVoZ06rKnOK16Z4o3-6" style="edgeStyle=none;html=1;endArrow=none;endFill=0;fontSize=15;" parent="1" source="1Gb1egaOadGZ2a_2MbuA-24" target="1Gb1egaOadGZ2a_2MbuA-13" edge="1">
                    <mxGeometry relative="1" as="geometry"/>
                </mxCell>
                <mxCell id="1Gb1egaOadGZ2a_2MbuA-24" value="工作空间数据" style="ellipse;shape=umlEntity;whiteSpace=wrap;html=1;fontSize=15;" parent="1" vertex="1">
                    <mxGeometry x="-1055" y="615" width="80" height="80" as="geometry"/>
                </mxCell>
                <mxCell id="1Gb1egaOadGZ2a_2MbuA-1" style="edgeStyle=none;html=1;endArrow=none;endFill=0;fontSize=15;" parent="1" source="1Gb1egaOadGZ2a_2MbuA-2" target="1Gb1egaOadGZ2a_2MbuA-24" edge="1">
                    <mxGeometry relative="1" as="geometry"/>
                </mxCell>
                <mxCell id="1Gb1egaOadGZ2a_2MbuA-25" value="文件存储" style="ellipse;shape=umlEntity;whiteSpace=wrap;html=1;fontSize=15;" parent="1" vertex="1">
                    <mxGeometry x="-669" y="615" width="80" height="80" as="geometry"/>
                </mxCell>
                <mxCell id="1Gb1egaOadGZ2a_2MbuA-3" style="edgeStyle=none;html=1;endArrow=none;endFill=0;fontSize=15;" parent="1" source="1Gb1egaOadGZ2a_2MbuA-5" target="1Gb1egaOadGZ2a_2MbuA-25" edge="1">
                    <mxGeometry relative="1" as="geometry"/>
                </mxCell>
                <mxCell id="1Gb1egaOadGZ2a_2MbuA-18" style="edgeStyle=none;html=1;endArrow=none;endFill=0;fontSize=15;" parent="1" source="1Gb1egaOadGZ2a_2MbuA-20" target="1Gb1egaOadGZ2a_2MbuA-25" edge="1">
                    <mxGeometry relative="1" as="geometry"/>
                </mxCell>
                <mxCell id="1Gb1egaOadGZ2a_2MbuA-28" value="数据空间数据" style="ellipse;shape=umlEntity;whiteSpace=wrap;html=1;fontSize=15;" parent="1" vertex="1">
                    <mxGeometry x="-815" y="615" width="80" height="80" as="geometry"/>
                </mxCell>
                <mxCell id="1Gb1egaOadGZ2a_2MbuA-4" style="edgeStyle=none;html=1;endArrow=none;endFill=0;fontSize=15;" parent="1" source="1Gb1egaOadGZ2a_2MbuA-5" target="1Gb1egaOadGZ2a_2MbuA-28" edge="1">
                    <mxGeometry relative="1" as="geometry"/>
                </mxCell>
                <mxCell id="1Gb1egaOadGZ2a_2MbuA-17" style="edgeStyle=none;html=1;endArrow=none;endFill=0;fontSize=15;" parent="1" source="1Gb1egaOadGZ2a_2MbuA-20" target="1Gb1egaOadGZ2a_2MbuA-28" edge="1">
                    <mxGeometry relative="1" as="geometry"/>
                </mxCell>
                <mxCell id="zxybhiNNPWDu_kbE6-t5-33" style="edgeStyle=none;html=1;strokeWidth=1;fontSize=15;endArrow=none;endFill=0;endSize=6;" parent="1" source="zxybhiNNPWDu_kbE6-t5-13" target="zxybhiNNPWDu_kbE6-t5-24" edge="1">
                    <mxGeometry relative="1" as="geometry"/>
                </mxCell>
                <mxCell id="zxybhiNNPWDu_kbE6-t5-13" value="开发者" style="shape=umlActor;verticalLabelPosition=bottom;verticalAlign=top;html=1;fontSize=15;" parent="1" vertex="1">
                    <mxGeometry x="-920" y="170" width="30" height="60" as="geometry"/>
                </mxCell>
                <mxCell id="ViZqe3pEsHuasah4cH0R-2" style="edgeStyle=none;html=1;strokeWidth=2;endArrow=none;endFill=0;" parent="1" source="zxybhiNNPWDu_kbE6-t5-24" target="oEgxVoZ06rKnOK16Z4o3-8" edge="1">
                    <mxGeometry relative="1" as="geometry"/>
                </mxCell>
                <mxCell id="zxybhiNNPWDu_kbE6-t5-24" value="" style="rounded=0;whiteSpace=wrap;html=1;fontSize=13;fillColor=#f5f5f5;strokeColor=#666666;fontColor=#333333;" parent="1" vertex="1">
                    <mxGeometry x="-1320" y="300" width="830" height="130" as="geometry"/>
                </mxCell>
                <mxCell id="zxybhiNNPWDu_kbE6-t5-16" value="工作空间应用前端" style="html=1;fontSize=13;" parent="1" vertex="1">
                    <mxGeometry x="-1185" y="359" width="110" height="50" as="geometry"/>
                </mxCell>
                <mxCell id="zxybhiNNPWDu_kbE6-t5-17" value="工作空间应用接口" style="html=1;fontSize=13;" parent="1" vertex="1">
                    <mxGeometry x="-750" y="359" width="110" height="50" as="geometry"/>
                </mxCell>
                <mxCell id="zxybhiNNPWDu_kbE6-t5-19" value="用户及组织应用接口" style="html=1;fontSize=13;" parent="1" vertex="1">
                    <mxGeometry x="-630" y="359" width="120" height="51" as="geometry"/>
                </mxCell>
                <mxCell id="zxybhiNNPWDu_kbE6-t5-21" value="用户及组织应用前端" style="html=1;fontSize=13;" parent="1" vertex="1">
                    <mxGeometry x="-1060" y="359" width="130" height="51" as="geometry"/>
                </mxCell>
                <mxCell id="zxybhiNNPWDu_kbE6-t5-28" value="交互层" style="text;html=1;strokeColor=none;fillColor=none;align=center;verticalAlign=middle;whiteSpace=wrap;rounded=0;fontSize=15;" parent="1" vertex="1">
                    <mxGeometry x="-1280" y="300" width="60" height="30" as="geometry"/>
                </mxCell>
                <mxCell id="ZPXXVX6sJdJjNKYwcHni-1" style="edgeStyle=none;html=1;endArrow=none;endFill=0;" parent="1" source="ZPXXVX6sJdJjNKYwcHni-2" target="ZPXXVX6sJdJjNKYwcHni-3" edge="1">
                    <mxGeometry relative="1" as="geometry"/>
                </mxCell>
                <mxCell id="ZPXXVX6sJdJjNKYwcHni-2" value="用户及组织服务" style="html=1;fontSize=15;" parent="1" vertex="1">
                    <mxGeometry x="-1280" y="520" width="110" height="50" as="geometry"/>
                </mxCell>
                <mxCell id="ZPXXVX6sJdJjNKYwcHni-3" value="用户组织数据" style="ellipse;shape=umlEntity;whiteSpace=wrap;html=1;fontSize=15;" parent="1" vertex="1">
                    <mxGeometry x="-1265" y="615" width="80" height="80" as="geometry"/>
                </mxCell>
                <mxCell id="ViZqe3pEsHuasah4cH0R-1" value="" style="group" parent="1" vertex="1" connectable="0">
                    <mxGeometry x="-1320" y="870" width="830" height="370" as="geometry"/>
                </mxCell>
                <mxCell id="oEgxVoZ06rKnOK16Z4o3-11" value="" style="rounded=0;whiteSpace=wrap;html=1;container=0;fillColor=#fff2cc;strokeColor=#d6b656;fontSize=15;" parent="ViZqe3pEsHuasah4cH0R-1" vertex="1">
                    <mxGeometry width="830" height="370" as="geometry"/>
                </mxCell>
                <mxCell id="1Gb1egaOadGZ2a_2MbuA-7" value="容器镜像服务" style="html=1;container=0;fontSize=15;" parent="ViZqe3pEsHuasah4cH0R-1" vertex="1">
                    <mxGeometry x="550" y="160" width="110" height="50" as="geometry"/>
                </mxCell>
                <mxCell id="1Gb1egaOadGZ2a_2MbuA-23" value="容器执行器" style="html=1;container=0;fontSize=15;" parent="ViZqe3pEsHuasah4cH0R-1" vertex="1">
                    <mxGeometry x="400" y="160" width="110" height="50" as="geometry"/>
                </mxCell>
                <mxCell id="1Gb1egaOadGZ2a_2MbuA-27" value="容器镜像数据" style="ellipse;shape=umlEntity;whiteSpace=wrap;html=1;container=0;fontSize=15;" parent="ViZqe3pEsHuasah4cH0R-1" vertex="1">
                    <mxGeometry x="506" y="255" width="80" height="80" as="geometry"/>
                </mxCell>
                <mxCell id="oEgxVoZ06rKnOK16Z4o3-3" style="edgeStyle=none;html=1;endArrow=none;endFill=0;fontSize=15;" parent="ViZqe3pEsHuasah4cH0R-1" source="1Gb1egaOadGZ2a_2MbuA-7" target="1Gb1egaOadGZ2a_2MbuA-27" edge="1">
                    <mxGeometry relative="1" as="geometry"/>
                </mxCell>
                <mxCell id="1Gb1egaOadGZ2a_2MbuA-21" style="edgeStyle=none;html=1;endArrow=none;endFill=0;fontSize=15;" parent="ViZqe3pEsHuasah4cH0R-1" source="1Gb1egaOadGZ2a_2MbuA-23" target="1Gb1egaOadGZ2a_2MbuA-27" edge="1">
                    <mxGeometry relative="1" as="geometry"/>
                </mxCell>
                <mxCell id="1Gb1egaOadGZ2a_2MbuA-29" value="异步任务数据" style="ellipse;shape=umlEntity;whiteSpace=wrap;html=1;container=0;fontSize=15;" parent="ViZqe3pEsHuasah4cH0R-1" vertex="1">
                    <mxGeometry x="415" y="45" width="80" height="80" as="geometry"/>
                </mxCell>
                <mxCell id="oEgxVoZ06rKnOK16Z4o3-5" style="edgeStyle=none;html=1;endArrow=none;endFill=0;fontSize=15;" parent="ViZqe3pEsHuasah4cH0R-1" source="1Gb1egaOadGZ2a_2MbuA-23" target="1Gb1egaOadGZ2a_2MbuA-29" edge="1">
                    <mxGeometry relative="1" as="geometry"/>
                </mxCell>
                <mxCell id="oEgxVoZ06rKnOK16Z4o3-1" value="镜像文件" style="ellipse;shape=umlEntity;whiteSpace=wrap;html=1;container=0;fontSize=15;" parent="ViZqe3pEsHuasah4cH0R-1" vertex="1">
                    <mxGeometry x="630" y="255" width="80" height="80" as="geometry"/>
                </mxCell>
                <mxCell id="oEgxVoZ06rKnOK16Z4o3-4" style="edgeStyle=none;html=1;endArrow=none;endFill=0;fontSize=15;" parent="ViZqe3pEsHuasah4cH0R-1" source="1Gb1egaOadGZ2a_2MbuA-7" target="oEgxVoZ06rKnOK16Z4o3-1" edge="1">
                    <mxGeometry relative="1" as="geometry"/>
                </mxCell>
                <mxCell id="oEgxVoZ06rKnOK16Z4o3-16" value="容器服务层" style="text;html=1;align=center;verticalAlign=middle;resizable=0;points=[];autosize=1;strokeColor=none;fillColor=none;fontSize=15;" parent="ViZqe3pEsHuasah4cH0R-1" vertex="1">
                    <mxGeometry width="100" height="30" as="geometry"/>
                </mxCell>
                <mxCell id="zxybhiNNPWDu_kbE6-t5-53" value="容器环境API" style="html=1;container=0;fontSize=15;" parent="ViZqe3pEsHuasah4cH0R-1" vertex="1">
                    <mxGeometry x="180" y="220" width="110" height="120" as="geometry"/>
                </mxCell>
                <mxCell id="zxybhiNNPWDu_kbE6-t5-54" style="edgeStyle=none;html=1;strokeWidth=1;fontSize=15;endArrow=none;endFill=0;endSize=6;" parent="ViZqe3pEsHuasah4cH0R-1" source="1Gb1egaOadGZ2a_2MbuA-23" target="zxybhiNNPWDu_kbE6-t5-53" edge="1">
                    <mxGeometry relative="1" as="geometry"/>
                </mxCell>
                <mxCell id="oEgxVoZ06rKnOK16Z4o3-18" style="edgeStyle=none;html=1;endArrow=none;endFill=0;fontSize=15;strokeWidth=2;" parent="1" source="oEgxVoZ06rKnOK16Z4o3-8" target="oEgxVoZ06rKnOK16Z4o3-11" edge="1">
                    <mxGeometry relative="1" as="geometry">
                        <mxPoint x="-720" y="820" as="sourcePoint"/>
                    </mxGeometry>
                </mxCell>
                <mxCell id="1Gb1egaOadGZ2a_2MbuA-12" style="edgeStyle=none;html=1;endArrow=none;endFill=0;fontSize=15;" parent="1" source="1Gb1egaOadGZ2a_2MbuA-13" target="1Gb1egaOadGZ2a_2MbuA-29" edge="1">
                    <mxGeometry relative="1" as="geometry"/>
                </mxCell>
                <mxCell id="1Gb1egaOadGZ2a_2MbuA-19" style="edgeStyle=none;html=1;endArrow=none;endFill=0;fontSize=15;" parent="1" source="1Gb1egaOadGZ2a_2MbuA-20" target="1Gb1egaOadGZ2a_2MbuA-29" edge="1">
                    <mxGeometry relative="1" as="geometry"/>
                </mxCell>
                <mxCell id="3WPW9wRoEwNam94XegMr-1" value="注册登录前端" style="html=1;fontSize=13;" parent="1" vertex="1">
                    <mxGeometry x="-1305" y="359" width="110" height="50" as="geometry"/>
                </mxCell>
                <mxCell id="3WPW9wRoEwNam94XegMr-2" value="注册登录接口" style="html=1;fontSize=13;" parent="1" vertex="1">
                    <mxGeometry x="-880" y="359" width="110" height="50" as="geometry"/>
                </mxCell>
            </root>
        </mxGraphModel>
    </diagram>
</mxfile>